<svg width="32" height="26" viewBox="0 0 32 26" fill="none" xmlns="http://www.w3.org/2000/svg">
<path fill-rule="evenodd" clip-rule="evenodd" d="M32.0012 3.0752C30.8248 3.6014 29.5574 3.951 28.234 4.1069C29.5899 3.2949 30.6269 2.00805 31.1218 0.476153C29.8545 1.22555 28.446 1.7754 26.9537 2.06945C25.7537 0.794453 24.0493 0.00195312 22.1613 0.00195312C18.5359 0.00195312 15.6008 2.93875 15.6008 6.56185C15.6008 7.07325 15.6575 7.57345 15.7685 8.05595C10.3135 7.77955 5.47745 5.1681 2.24 1.19485C1.65807 2.19727 1.35164 3.33577 1.3518 4.49485C1.3518 6.7697 2.5069 8.78175 4.26915 9.9552C3.19375 9.9233 2.18215 9.6233 1.2939 9.13725V9.21935C1.2939 12.4007 3.55515 15.0553 6.5599 15.6553C6.0095 15.8047 5.4284 15.8874 4.8296 15.8874C4.4056 15.8874 3.9969 15.8437 3.5906 15.7699C4.42975 18.3754 6.85225 20.2746 9.7212 20.3301C7.47175 22.0924 4.64655 23.1418 1.5667 23.1418C1.0352 23.1418 0.5173 23.1093 0 23.0473C2.91145 24.9152 6.3603 25.9971 10.0655 25.9971C22.1365 25.9971 28.7431 15.9937 28.7431 7.3201C28.7431 7.0319 28.7366 6.7526 28.7248 6.4703C30.0069 5.55315 31.1183 4.39565 31.9983 3.0781L32.0012 3.07515L32.0012 3.0752Z" fill="#F6C023"/>
</svg>
