<svg width="32" height="24" viewBox="0 0 32 24" fill="none" xmlns="http://www.w3.org/2000/svg">
<path fill-rule="evenodd" clip-rule="evenodd" d="M31.674 5.60224C31.674 5.60224 31.3616 3.39649 30.4002 2.42799C29.1819 1.15414 27.8176 1.14589 27.194 1.07209C22.7194 0.746094 15.9988 0.746094 15.9988 0.746094H15.987C15.987 0.746094 9.2694 0.746094 4.79235 1.07209C4.16635 1.14824 2.80395 1.15359 1.5862 2.42799C0.6242 3.39649 0.3183 5.60224 0.3183 5.60224C0.3183 5.60224 0 8.19064 0 10.7844V13.2098C0 15.7982 0.3183 18.392 0.3183 18.392C0.3183 18.392 0.6307 20.5977 1.5862 21.568C2.80395 22.8418 4.40435 22.8005 5.11895 22.9363C7.6808 23.1808 16.0012 23.2546 16.0012 23.2546C16.0012 23.2546 22.7276 23.2428 27.2023 22.9227C27.8283 22.8489 29.1901 22.8412 30.4084 21.5668C31.3704 20.5983 31.6822 18.3902 31.6822 18.3902C31.6822 18.3902 32.0006 15.8018 32.0006 13.208V10.7826C31.9941 8.19419 31.6758 5.60049 31.6758 5.60049L31.674 5.60224ZM12.684 16.1526V7.15899L21.3286 11.6708L12.684 16.1526Z" fill="#F6C023"/>
</svg>
